<svg width="32" height="32" viewBox="0 0 32 32" fill="none" xmlns="http://www.w3.org/2000/svg">
  <!-- Rare Star - Blue -->
  <path d="M16 4 L18 12 L26 12 L20 18 L22 26 L16 22 L10 26 L12 18 L6 12 L14 12 Z" fill="#4169E1" stroke="#191970" stroke-width="1.5"/>
  
  <!-- Inner Detail -->
  <circle cx="16" cy="16" r="3" fill="#87CEEB"/>
  
  <!-- Center Glow -->
  <circle cx="16" cy="16" r="1.5" fill="#ADD8E6"/>
  
  <!-- Decorative Rays -->
  <line x1="16" y1="6" x2="16" y2="11" stroke="#ADD8E6" stroke-width="1.5"/>
  <line x1="25" y1="16" x2="21" y2="16" stroke="#ADD8E6" stroke-width="1.5"/>
  <line x1="16" y1="26" x2="16" y2="21" stroke="#ADD8E6" stroke-width="1.5"/>
  <line x1="7" y1="16" x2="11" y2="16" stroke="#ADD8E6" stroke-width="1.5"/>
  
  <!-- Diagonal Rays -->
  <line x1="21.5" y1="10.5" x2="19" y2="13" stroke="#ADD8E6" stroke-width="1"/>
  <line x1="21.5" y1="21.5" x2="19" y2="19" stroke="#ADD8E6" stroke-width="1"/>
  <line x1="10.5" y1="21.5" x2="13" y2="19" stroke="#ADD8E6" stroke-width="1"/>
  <line x1="10.5" y1="10.5" x2="13" y2="13" stroke="#ADD8E6" stroke-width="1"/>
</svg>